<svg width="880" height="937" viewBox="0 0 880 937" fill="none" xmlns="http://www.w3.org/2000/svg">
<g clip-path="url(#clip0_23346_56000)">
<path d="M0 422.957V530.429C0 549.877 15.7503 565.641 35.1817 565.641H420.26C439.691 565.641 455.443 549.877 455.443 530.429V439.619L503.382 389.212L35.2918 387.748C15.819 387.687 0 403.469 0 422.957Z" fill="#F3F2F1"/>
<path d="M398.678 452.86L49.2456 451.247L49.2833 440.499L398.714 442.114L398.678 452.86Z" fill="#DADBD8"/>
<path d="M398.678 488.223L49.2456 486.608L49.2833 475.86L398.714 477.475L398.678 488.223Z" fill="#DADBD8"/>
<path d="M398.678 522.688L260.42 522.007L260.463 511.259L398.721 511.94L398.678 522.688Z" fill="#DADBD8"/>
<path d="M356.811 794.317V901.791C356.811 921.236 372.561 937 391.994 937H777.071C796.502 937 812.254 921.236 812.254 901.791V810.981L860.195 760.572L392.102 759.11C372.63 759.049 356.811 774.831 356.811 794.317Z" fill="#F3F2F1"/>
<path d="M757.164 821.432L407.732 819.816L407.768 809.065L757.198 810.683L757.164 821.432Z" fill="#DADBD8"/>
<path d="M757.164 856.791L407.732 855.176L407.768 844.426L757.198 846.044L757.164 856.791Z" fill="#DADBD8"/>
<path d="M757.164 891.257L618.904 890.575L618.947 879.83L757.205 880.511L757.164 891.257Z" fill="#DADBD8"/>
<path d="M205.827 18.1034H432.95C444.193 18.1034 453.306 27.2227 453.306 38.4742V149.648C453.306 160.899 444.193 170.021 432.95 170.021H240.22C228.977 170.021 219.862 160.899 219.862 149.648V32.1479L205.827 18.1034Z" fill="#F3F2F1"/>
<path d="M337.493 126.182V197.465C337.493 210.361 327.048 220.816 314.159 220.816H58.7592C45.87 220.816 35.423 210.361 35.423 197.465V137.235L3.62646 103.803L314.087 102.831C327 102.79 337.493 113.256 337.493 126.182Z" fill="#DADBD8"/>
<path d="M73.0711 146.016L304.83 144.946L304.808 137.817L73.0483 138.888L73.0711 146.016Z" fill="#F3F2F1"/>
<path d="M73.0711 169.468L304.83 168.399L304.808 161.269L73.0483 162.341L73.0711 169.468Z" fill="#F3F2F1"/>
<path d="M73.0711 192.33L164.772 191.876L164.743 184.749L73.043 185.2L73.0711 192.33Z" fill="#F3F2F1"/>
<path d="M821.323 456.732V528.013C821.323 540.909 810.876 551.366 797.988 551.366H542.586C529.697 551.366 519.25 540.909 519.25 528.013V467.785L487.454 434.351L797.915 433.381C810.829 433.34 821.323 443.806 821.323 456.732Z" fill="#DADBD8"/>
<path d="M556.9 476.566L788.659 475.494L788.636 468.367L556.877 469.439L556.9 476.566Z" fill="#F3F2F1"/>
<path d="M556.9 500.018L788.659 498.947L788.636 491.817L556.877 492.891L556.9 500.018Z" fill="#F3F2F1"/>
<path d="M556.9 522.878L648.599 522.426L648.572 515.297L556.871 515.751L556.9 522.878Z" fill="#F3F2F1"/>
<path d="M602.541 810.602C564.367 773.402 563.74 715.862 573.671 665.859C575.328 657.513 575.855 648.511 581.047 641.801C586.244 635.092 596.375 631.583 603.308 636.353C609.054 640.306 610.583 648.001 613.085 654.569C616.417 663.307 622.243 671.041 629.682 676.593C634.568 680.242 640.898 683.019 646.647 680.973C654.533 678.164 657.024 668.302 658.339 659.945C660.785 644.367 663.235 628.795 665.681 613.223C666.996 604.866 668.366 596.338 672.255 588.841C676.146 581.343 683.083 574.922 691.382 573.997C699.683 573.075 708.746 579.261 709.084 587.706C709.226 591.221 707.954 594.637 707.621 598.138C707.287 601.642 708.272 605.739 711.404 607.244C714.571 608.769 718.296 606.951 721.19 604.916C731.178 597.897 738.798 587.997 746.023 578.092C753.251 568.19 760.361 558.001 769.674 550.089C778.992 542.177 790.988 536.66 803.045 537.942C815.106 539.223 826.624 548.686 827.722 560.916C828.827 573.183 820.012 584.001 810.987 592.302C797.598 604.622 782.448 614.974 766.169 622.933C763.233 624.368 760.052 625.92 758.542 628.849C755.819 634.117 760.183 640.509 765.375 643.239C771.255 646.329 778.108 646.787 784.486 648.617C790.864 650.451 797.44 654.476 798.894 661.031C800.916 670.125 792.32 677.9 784.346 682.608C768.378 692.034 750.82 698.672 732.679 702.144C726.175 703.385 719.396 704.297 713.742 707.8C708.087 711.306 703.874 718.319 705.901 724.688C707.93 731.063 715.293 734.204 721.919 734.062C728.538 733.924 734.864 731.375 741.368 730.064C753.539 727.614 768.214 730.829 773.933 741.945C777.693 749.255 776.634 758.399 772.921 765.767C769.21 773.139 763.166 779.018 756.898 784.329C734.999 802.888 708.635 816.4 680.534 821.273C652.434 826.144 627.385 824.603 602.541 810.602Z" fill="#FF6A00"/>
<path d="M595.782 847.772C600.861 828.15 609.074 805.341 620.667 781.204C632.214 757.04 647.064 731.605 663.512 705.533C667.647 699.031 671.734 692.605 675.761 686.274C679.794 679.964 683.798 673.701 688.088 667.824C696.621 656.024 705.723 645.328 714.682 635.448C723.636 625.562 732.496 616.503 740.84 608.094C749.208 599.704 757.155 592.026 764.694 585.339C779.74 571.904 793.132 562.527 802.587 556.465C807.31 553.417 811.05 551.174 813.609 549.687C814.838 548.983 815.798 548.431 816.526 548.013C817.189 547.648 817.532 547.47 817.545 547.492C817.561 547.517 817.241 547.74 816.607 548.153C815.899 548.602 814.959 549.2 813.767 549.958C811.267 551.533 807.581 553.857 802.912 556.977C793.571 563.19 780.329 572.673 765.42 586.174C757.947 592.893 750.065 600.595 741.753 609.019C733.45 617.46 724.64 626.534 715.732 636.425C706.827 646.307 697.785 656.983 689.317 668.728C685.056 674.583 681.097 680.792 677.057 687.123C673.033 693.449 668.952 699.874 664.82 706.374C648.39 732.427 633.535 757.776 621.95 781.834C610.326 805.864 602.038 828.538 596.842 848.056" fill="#17282F"/>
<path d="M688.535 667.835C688.429 667.835 688.354 666.52 688.305 664.139C688.242 661.761 688.269 658.319 688.363 654.063C688.544 645.56 689.193 633.824 689.957 620.887C690.724 607.943 691.206 596.232 691.256 587.746C691.292 583.505 691.29 580.069 691.253 577.697C691.233 575.322 691.274 574.004 691.382 573.997C691.49 573.991 691.653 575.295 691.858 577.668C692.076 580.037 692.252 583.478 692.354 587.733C692.586 596.245 692.275 608.013 691.508 620.968C690.721 633.736 690.009 645.283 689.461 654.104C689.24 658.091 689.058 661.452 688.909 664.151C688.771 666.522 688.645 667.837 688.535 667.835Z" fill="#17282F"/>
<path d="M799.065 665.349C799.049 665.455 797.494 665.383 794.703 665.159C791.91 664.954 787.872 664.636 782.872 664.399C772.873 663.851 759.04 663.578 743.761 663.946C728.481 664.34 714.668 665.286 704.696 666.258C699.703 666.709 695.676 667.183 692.89 667.492C690.103 667.815 688.555 667.943 688.534 667.835C688.519 667.727 690.04 667.397 692.806 666.885C695.573 666.389 699.592 665.746 704.584 665.148C714.553 663.891 728.406 662.768 743.734 662.371C759.053 662.005 772.938 662.454 782.946 663.289C787.955 663.668 791.991 664.155 794.771 664.552C797.55 664.963 799.074 665.238 799.065 665.349Z" fill="#17282F"/>
<path d="M622.308 779.447C622.256 779.458 622.078 778.97 621.787 778.016C621.462 776.886 621.066 775.505 620.588 773.833C619.562 770.197 618.218 764.892 616.64 758.32C613.477 745.178 609.681 726.888 605.76 706.645C601.84 686.394 598.219 668.092 595.333 654.901C593.913 648.489 592.741 643.212 591.873 639.288C591.503 637.587 591.201 636.186 590.955 635.033C590.761 634.058 590.685 633.539 590.736 633.521C590.791 633.51 590.966 634.002 591.259 634.954C591.582 636.087 591.979 637.463 592.457 639.135C593.482 642.772 594.828 648.074 596.404 654.646C599.567 667.788 603.366 686.083 607.284 706.332C611.205 726.576 614.827 744.876 617.711 758.07C619.136 764.482 620.304 769.761 621.171 773.68C621.539 775.381 621.841 776.786 622.091 777.935C622.283 778.912 622.362 779.433 622.308 779.447Z" fill="#17282F"/>
<path d="M772.341 756.831C772.346 756.886 771.825 757.003 770.831 757.181C769.656 757.373 768.214 757.607 766.466 757.894C762.44 758.506 757.004 759.336 750.394 760.341C736.825 762.412 718.115 765.488 697.447 768.914C676.773 772.345 658.019 775.248 644.402 777.037C637.593 777.937 632.077 778.607 628.258 778.989C626.495 779.158 625.038 779.293 623.857 779.408C622.847 779.488 622.313 779.501 622.308 779.447C622.301 779.392 622.824 779.272 623.819 779.09C624.991 778.903 626.432 778.668 628.185 778.384C632.21 777.768 637.641 776.942 644.253 775.936C657.82 773.867 676.532 770.79 697.208 767.361C717.876 763.933 736.629 761.028 750.243 759.24C757.054 758.341 762.568 757.67 766.39 757.287C768.157 757.12 769.609 756.98 770.793 756.87C771.803 756.79 772.332 756.777 772.341 756.831Z" fill="#17282F"/>
<path d="M223.292 303.282C216.324 297.874 213.209 288.297 214.665 279.593C216.121 270.886 221.735 263.182 229.009 258.191C232.372 255.885 236.539 254.056 240.452 255.206C244.109 256.282 246.657 259.843 247.396 263.586C248.138 267.326 247.337 271.214 246.091 274.819C241.814 287.183 235.407 298.362 223.292 303.282Z" fill="#33535F"/>
<path d="M211.86 324.402C198.123 311.863 178.091 306.613 159.977 310.809C155.365 311.878 150.174 314.317 149.413 318.994C148.654 323.678 152.834 327.651 156.937 330.031C174.009 339.936 197.134 338.074 212.403 325.566" fill="#33535F"/>
<path d="M145.679 226.625C153.293 224.534 161.638 226.416 168.375 230.533C175.114 234.651 180.386 240.83 184.608 247.506C192.778 260.42 195.656 277.779 196.019 293.062C179.069 292.374 164.585 279.043 157.661 271.818C146.72 260.398 133.873 233.107 145.679 226.625Z" fill="#33535F"/>
<path d="M237.497 347.476C236.503 345.671 234.884 344.396 233.267 341.082C230.086 334.462 225.799 325.05 223.721 313.846C221.651 302.626 223.054 292.036 225.837 285.118C227.194 281.641 228.716 279.011 229.938 277.332C231.151 275.645 231.955 274.821 232.032 274.882C232.325 275.072 229.324 278.632 226.975 285.529C224.56 292.358 223.393 302.608 225.405 313.541C227.428 324.479 231.475 333.853 234.368 340.577" fill="#17282F"/>
<path d="M237.657 347.683C235.386 344.755 232.415 340.917 228.83 336.29C221.401 326.654 211.107 313.37 199.545 298.842C187.982 284.324 177.339 271.32 169.612 261.92C165.904 257.39 162.832 253.634 160.486 250.768C158.347 248.12 157.206 246.619 157.295 246.54C157.385 246.464 158.696 247.817 160.991 250.335C163.29 252.846 166.554 256.537 170.537 261.142C178.508 270.345 189.309 283.243 200.883 297.775C212.458 312.316 222.611 325.733 229.798 335.561C233.391 340.475 236.257 344.484 238.191 347.286" fill="#17282F"/>
<path d="M170.56 320.847C170.534 320.731 171.576 320.418 173.501 319.946C174.46 319.691 175.643 319.43 177.042 319.269C178.436 319.091 180.023 318.793 181.799 318.76C185.34 318.482 189.588 318.631 194.251 319.233C198.899 319.933 203.951 321.149 209.029 323.087C214.084 325.093 218.631 327.613 222.53 330.241C226.375 332.951 229.606 335.714 232.03 338.314C233.315 339.539 234.284 340.831 235.19 341.905C236.115 342.97 236.809 343.965 237.346 344.8C238.446 346.447 238.288 347.219 238.191 347.286C237.92 347.483 236.193 344.01 231.175 339.171C228.691 336.73 225.451 334.124 221.649 331.55C217.792 329.057 213.339 326.64 208.409 324.684C203.455 322.794 198.543 321.564 194.018 320.792C189.477 320.12 185.33 319.849 181.85 319.969C174.883 320.143 170.628 321.174 170.56 320.847Z" fill="#17282F"/>
<path d="M548.759 896.523L288.371 895.318C257.054 895.176 231.78 869.657 231.913 838.317L234.672 185.022C234.803 153.662 260.319 128.352 291.653 128.497L552.044 129.701C583.363 129.846 608.635 155.363 608.502 186.703L605.745 839.999C605.609 871.36 580.096 896.669 548.759 896.523Z" fill="#17282F"/>
<path d="M551.672 152.247L501.188 152.015C494.418 151.983 488.904 157.702 488.877 164.782L488.834 173.947C488.807 181.031 483.292 186.748 476.522 186.716L378.116 186.261C371.346 186.231 365.883 180.462 365.912 173.378L365.951 164.214C365.98 157.132 360.515 151.363 353.745 151.333L335.989 151.25L291.802 151.047C269.857 150.945 251.989 168.672 251.896 190.633L249.202 828.297C249.11 850.247 266.809 868.118 288.743 868.219L548.613 869.42C570.555 869.521 588.426 851.797 588.519 829.836L591.213 192.17C591.305 170.22 573.605 152.349 551.672 152.247Z" fill="#FAFAF9"/>
<path d="M404.601 808.371C404.589 810.917 402.182 812.968 399.221 812.955C396.259 812.941 393.867 810.866 393.878 808.32C393.89 805.776 396.297 803.721 399.26 803.736C402.22 803.75 404.612 805.823 404.601 808.371Z" fill="#33535F"/>
<path d="M421.216 808.447C421.205 810.992 418.797 813.045 415.834 813.032C412.874 813.018 410.482 810.945 410.494 808.397C410.503 805.853 412.913 803.799 415.873 803.811C418.835 803.824 421.225 805.9 421.216 808.447Z" fill="#33535F"/>
<path d="M437.829 808.521C437.82 811.068 435.41 813.122 432.448 813.109C429.488 813.095 427.096 811.022 427.107 808.474C427.118 805.927 429.526 803.876 432.486 803.887C435.448 803.899 437.84 805.974 437.829 808.521Z" fill="#33535F"/>
<path d="M329.568 459.654C333.802 460.258 589.244 510.399 589.244 510.399V459.654H329.568Z" fill="#E7E8E5"/>
<path d="M249.202 781.82C249.202 781.82 527.076 742.48 524.656 743.689C522.237 744.901 249.202 743.689 249.202 743.689V781.82Z" fill="#E7E8E5"/>
<path d="M571.901 37.3167C572.225 37.3167 572.489 51.3747 572.489 68.7132C572.489 86.0585 572.225 100.114 571.901 100.114C571.576 100.114 571.314 86.0585 571.314 68.7132C571.314 51.3747 571.576 37.3167 571.901 37.3167Z" fill="#17282F"/>
<path d="M683.092 109.581C683.225 109.879 670.476 115.794 654.625 122.795C638.77 129.798 625.813 135.233 625.683 134.936C625.552 134.64 638.296 128.724 654.152 121.721C670.003 114.721 682.964 109.285 683.092 109.581Z" fill="#17282F"/>
<path d="M680.283 -0.00670624C680.319 0.0158539 680.11 0.428749 679.679 1.19584C679.176 2.06671 678.538 3.16771 677.752 4.52365C676.07 7.40701 673.549 11.5289 670.398 16.6008C664.085 26.7376 655 40.5114 644.71 55.5351C634.417 70.5633 625.234 84.2468 618.748 94.2618C615.576 99.1757 612.979 103.198 611.083 106.134C610.222 107.44 609.523 108.503 608.969 109.342C608.475 110.071 608.198 110.441 608.164 110.42C608.13 110.4 608.337 109.985 608.768 109.218C609.273 108.349 609.909 107.246 610.695 105.892C612.377 103.009 614.898 98.8869 618.049 93.8151C624.36 83.6782 633.45 69.9022 643.741 54.874C654.03 39.8504 663.213 26.1691 669.699 16.154C672.871 11.2402 675.468 7.21742 677.364 4.28217C678.225 2.97587 678.926 1.91096 679.479 1.07168C679.972 0.3452 680.247 -0.0270157 680.283 -0.00670624Z" fill="#17282F"/>
<path d="M836.162 265.609H327.909C316.932 265.609 308.034 274.514 308.034 285.499V443.274C308.034 454.259 316.932 463.164 327.909 463.164H365.775C368.825 479.641 372.394 500.429 372.394 500.429L406.663 463.164H836.162C847.139 463.164 856.037 454.259 856.037 443.274V285.499C856.037 274.514 847.139 265.609 836.162 265.609Z" fill="#FF6A00"/>
<path d="M626.467 351.192C626.467 351.514 565.974 351.778 491.37 351.778C416.743 351.778 356.263 351.514 356.263 351.192C356.263 350.867 416.743 350.603 491.37 350.603C565.974 350.603 626.467 350.867 626.467 351.192Z" fill="#F3F2F1"/>
<path d="M626.467 326.938C626.467 327.263 565.974 327.525 491.37 327.525C416.743 327.525 356.263 327.263 356.263 326.938C356.263 326.613 416.743 326.352 491.37 326.352C565.974 326.352 626.467 326.613 626.467 326.938Z" fill="#F3F2F1"/>
<path d="M626.467 375.177C626.467 375.502 565.974 375.763 491.37 375.763C416.743 375.763 356.263 375.502 356.263 375.177C356.263 374.852 416.743 374.588 491.37 374.588C565.974 374.588 626.467 374.852 626.467 375.177Z" fill="#F3F2F1"/>
<path d="M533.251 400.021C533.251 400.346 493.626 400.61 444.761 400.61C395.878 400.61 356.263 400.346 356.263 400.021C356.263 399.697 395.878 399.435 444.761 399.435C493.626 399.435 533.251 399.697 533.251 400.021Z" fill="#F3F2F1"/>
<path d="M606.52 549.259H94.0968C86.4175 549.259 80.1914 555.49 80.1914 563.175V730.098C80.1914 737.787 86.4175 744.016 94.0968 744.016H466.258L500.137 780.854C500.137 780.854 503.69 760.15 506.684 744.016H606.52C614.199 744.016 620.426 737.787 620.426 730.098V563.175C620.426 555.49 614.199 549.259 606.52 549.259Z" fill="#33535F"/>
<path d="M586.42 635.338C586.42 635.66 525.926 635.922 451.324 635.922C376.695 635.922 316.215 635.66 316.215 635.338C316.215 635.013 376.695 634.749 451.324 634.749C525.926 634.749 586.42 635.013 586.42 635.338Z" fill="#F3F2F1"/>
<path d="M586.42 611.084C586.42 611.409 525.926 611.671 451.324 611.671C376.695 611.671 316.215 611.409 316.215 611.084C316.215 610.759 376.695 610.497 451.324 610.497C525.926 610.497 586.42 610.759 586.42 611.084Z" fill="#F3F2F1"/>
<path d="M586.42 659.32C586.42 659.645 525.926 659.909 451.324 659.909C376.695 659.909 316.215 659.645 316.215 659.32C316.215 658.998 376.695 658.734 451.324 658.734C525.926 658.734 586.42 658.998 586.42 659.32Z" fill="#F3F2F1"/>
<path d="M493.205 684.167C493.205 684.492 453.579 684.754 404.714 684.754C355.83 684.754 316.215 684.492 316.215 684.167C316.215 683.842 355.83 683.578 404.714 683.578C453.579 683.578 493.205 683.842 493.205 684.167Z" fill="#F3F2F1"/>
<path d="M708.396 198.688C708.698 194.543 705.003 188.821 701.577 185.536C698.152 182.249 696.028 177.791 697.814 171.163C699.196 166.039 702.44 166.422 703.723 163.41C704.672 161.181 704.273 158.639 704.471 156.222C705.141 147.929 714.262 141.426 722.317 143.498C724.583 135.61 731.935 129.449 740.092 128.598C748.25 127.747 756.711 132.264 760.553 139.516C765.211 137.092 771.079 137.176 775.664 139.73C780.25 142.284 783.413 147.229 783.81 152.466C788.35 149.185 795.312 150.451 798.905 154.749C802.497 159.047 802.718 165.628 799.992 170.522C797.264 175.418 791.975 178.601 786.443 179.454C780.908 180.304 775.186 178.996 770.175 176.494C765.163 173.994 760.801 170.355 756.829 166.404" fill="#17282F"/>
<path d="M842.849 362.569C842.849 415.246 799.156 457.948 745.254 457.948C691.355 457.948 647.659 415.246 647.659 362.569C647.659 309.893 691.355 267.189 745.254 267.189C799.156 267.189 842.849 309.893 842.849 362.569Z" fill="#DADBD8"/>
<path d="M843.248 362.649L832.447 334.929L793.729 359.271L828.229 412.507C828.229 412.507 842.263 394.266 843.248 362.649Z" fill="#F68260"/>
<path d="M736.367 302.63C750.281 302.653 761.761 291.837 762.446 278.054C763.019 266.575 763.499 255.522 763.499 255.522C763.499 255.522 784.795 253.977 786.763 233.141C788.727 212.306 788.995 164.119 788.995 164.119C765.501 151.775 737.115 153.01 714.808 167.343L712.783 168.645L710.321 276.473C710.164 290.856 721.866 302.608 736.367 302.63Z" fill="#F8A58D"/>
<path d="M748.591 196.172C750.196 196.7 751.064 198.419 750.534 200.014C750.002 201.605 748.266 202.467 746.661 201.939C745.053 201.411 744.186 199.692 744.718 198.099C745.247 196.506 746.983 195.642 748.591 196.172Z" fill="#17282F"/>
<path d="M754.425 197.255C754.071 197.596 752.098 195.894 749.199 195.709C746.302 195.482 744.106 196.885 743.809 196.495C743.66 196.323 744.027 195.691 744.988 195.051C745.93 194.417 747.517 193.846 749.325 193.974C751.133 194.103 752.621 194.895 753.462 195.658C754.321 196.425 754.594 197.104 754.425 197.255Z" fill="#17282F"/>
<path d="M780.374 196.172C781.979 196.7 782.849 198.419 782.32 200.014C781.785 201.605 780.052 202.467 778.446 201.939C776.839 201.411 775.969 199.692 776.503 198.099C777.035 196.506 778.769 195.642 780.374 196.172Z" fill="#17282F"/>
<path d="M786.598 197.318C786.247 197.661 784.274 195.96 781.375 195.775C778.478 195.545 776.28 196.948 775.982 196.56C775.836 196.386 776.203 195.754 777.164 195.114C778.108 194.48 779.695 193.909 781.499 194.038C783.307 194.166 784.795 194.958 785.636 195.721C786.495 196.49 786.768 197.169 786.598 197.318Z" fill="#17282F"/>
<path d="M764.724 219.848C764.721 219.622 766.543 219.408 769.487 219.243C770.252 219.223 770.862 219.099 770.948 218.702C771.122 218.257 770.894 217.429 770.583 216.504C769.992 214.546 769.395 212.561 768.768 210.483C766.284 201.912 764.627 194.863 765.064 194.739C765.504 194.613 767.873 201.46 770.357 210.032C770.939 212.121 771.496 214.117 772.046 216.089C772.253 216.978 772.695 218.036 772.204 219.246C771.945 219.848 771.311 220.25 770.799 220.34C770.288 220.448 769.859 220.414 769.494 220.403C766.55 220.27 764.726 220.074 764.724 219.848Z" fill="#17282F"/>
<path d="M763.558 255.224C763.558 255.224 750.18 255.224 736.775 245.281C736.775 245.281 742.028 260.817 763.165 260.632L763.558 255.224Z" fill="#F68260"/>
<path d="M712.272 199.249C712.294 197.564 710.993 196.109 709.296 196.03C705.371 195.847 698.914 197.269 698.1 208.008C696.941 223.352 711.911 219.81 711.974 219.372C712.019 219.029 712.197 205.219 712.272 199.249Z" fill="#F8A58D"/>
<path d="M708.678 213.269C708.613 213.215 708.394 213.436 707.923 213.61C707.463 213.777 706.689 213.86 705.905 213.499C704.316 212.782 703.134 210.106 703.267 207.335C703.335 205.937 703.729 204.628 704.311 203.563C704.868 202.478 705.661 201.747 706.493 201.663C707.328 201.537 707.873 202.07 708.031 202.516C708.205 202.961 708.083 203.259 708.162 203.29C708.204 203.333 708.513 203.06 708.437 202.417C708.396 202.108 708.243 201.731 707.902 201.409C707.553 201.081 707.019 200.887 706.442 200.908C705.24 200.901 704.086 201.909 703.445 203.076C702.74 204.244 702.262 205.711 702.187 207.281C702.052 210.381 703.43 213.393 705.616 214.203C706.685 214.566 707.616 214.309 708.114 213.982C708.622 213.639 708.728 213.301 708.678 213.269Z" fill="#F68260"/>
<path d="M740.7 189.083C741.464 190.067 744.132 189.606 747.594 189.457C751.053 189.18 753.758 189.313 754.387 188.244C755.104 187.129 751.756 184.571 747.299 184.936C742.831 185.119 739.846 188.063 740.7 189.083Z" fill="#17282F"/>
<path d="M774.461 188.061C774.88 189.401 777.418 189.803 780.237 189.785C783.055 189.728 785.584 189.259 785.97 187.91C786.366 186.597 783.81 184.715 780.178 184.767C776.546 184.81 774.035 186.762 774.461 188.061Z" fill="#17282F"/>
<path d="M791.955 170.716C791.955 170.716 779.321 176.837 762.88 168.624C752.09 163.234 739.512 160.604 736.739 162.772C733.969 164.945 733.382 176.07 722.694 179.319C722.694 179.319 723.429 200.547 714.973 199.789C706.514 199.03 711.801 166.154 711.801 166.154L732.487 156.042L755.066 151.773L776.339 154.774L792.801 159.286L791.955 170.716Z" fill="#17282F"/>
<path d="M650.365 293.552C672.47 270.796 711.386 273.28 711.386 273.28L743.64 296.39L761.933 275.078C761.933 275.078 781.154 277.19 799.167 286.607L800.407 286.993L800.391 287.25C814.54 294.939 834.575 313.379 853.662 331.277L830.822 352.489L805.543 374.944C805.543 374.944 805.642 375.107 805.586 375.396C805.322 376.756 809.102 407.647 812.971 431.122C789.946 453.111 760.6 462.521 728.019 456.809C717.68 454.995 712.673 452.472 703.098 449.957C688.945 446.243 678.687 433.963 677.416 419.375C675.693 399.699 674.381 375.335 674.381 375.335L650.365 293.552Z" fill="#33535F"/>
<path d="M782.157 279.047C782.236 279.022 782.725 280.315 783.548 282.677C784.375 285.037 785.5 288.475 786.828 292.744C789.491 301.281 792.881 313.167 796.087 326.433C799.286 339.703 801.692 351.83 803.214 360.643C803.976 365.047 804.544 368.62 804.884 371.098C805.231 373.575 805.382 374.949 805.303 374.963C805.225 374.976 804.918 373.627 804.433 371.174C803.915 368.53 803.227 365.031 802.397 360.794C800.666 352.033 798.139 339.956 794.946 326.708C791.745 313.467 788.49 301.57 786.032 292.983C784.84 288.832 783.855 285.405 783.111 282.815C782.425 280.412 782.08 279.072 782.157 279.047Z" fill="#17282F"/>
<path d="M802.925 360.386C802.722 360.135 812.367 351.932 824.464 342.068C836.568 332.2 846.542 324.407 846.747 324.657C846.952 324.91 837.308 333.111 825.206 342.979C813.108 352.843 803.13 360.638 802.925 360.386Z" fill="#17282F"/>
<path d="M667.12 393.758L659.759 389.927L669.372 358.278L674.381 375.335L667.12 393.758Z" fill="#A7AAA9"/>
<path d="M674.381 375.335L669.372 358.278L679.546 324.783C681.841 336.633 674.381 375.335 674.381 375.335Z" fill="#263F48"/>
<path d="M779.377 278.794C771.14 276.405 764.618 275.428 762.591 275.16C762.591 275.126 762.593 275.092 762.595 275.056C766.653 275.735 775.903 277.375 779.377 278.794Z" fill="#A7AAA9"/>
<path d="M759.39 278.041L760.641 274.738C760.641 274.738 761.387 274.855 762.595 275.056C762.593 275.092 762.591 275.126 762.591 275.16C762.16 275.103 761.933 275.078 761.933 275.078L759.39 278.041Z" fill="#D8866F"/>
<path d="M752.362 297.897C752.195 297.897 752.033 297.895 751.873 297.89L759.389 278.041L761.932 275.078C761.932 275.078 762.16 275.103 762.591 275.16C764.617 275.428 771.14 276.405 779.377 278.794C779.619 278.893 779.833 278.99 780.013 279.085C790.539 284.64 764.651 297.897 752.362 297.897Z" fill="#263F48"/>
<path d="M708.205 274.738V257.487C708.205 257.487 741.872 266.158 743.094 286.318C743.094 286.318 747.378 264.035 764.724 262.965L767.174 294.312L746.988 311.89H726.529L710.321 297.899L708.205 276.132" fill="#33535F"/>
<path d="M750.672 383.019C750.593 383.015 750.575 381.693 750.613 379.308C750.663 376.925 750.705 373.476 750.717 369.216C750.746 360.697 750.48 348.927 749.411 335.976C748.332 323.024 746.65 311.369 745.218 302.971C744.499 298.928 743.904 295.582 743.453 293.035C743.02 290.691 742.817 289.385 742.896 289.367C742.977 289.349 743.329 290.621 743.899 292.94C744.479 295.257 745.216 298.633 746.034 302.822C747.682 311.202 749.495 322.879 750.584 335.879C751.655 348.875 751.79 360.692 751.546 369.227C751.431 373.496 751.258 376.948 751.068 379.328C750.89 381.711 750.753 383.024 750.672 383.019Z" fill="#17282F"/>
<path d="M741.546 280.516C741.532 280.615 740.781 280.227 739.548 280.703C738.261 281.118 737.111 282.72 736.169 285.01C734.101 289.493 731.543 295.954 729.764 303.65L729.586 304.419L728.905 304.009C726.894 302.793 724.831 301.477 722.755 300.067C718.731 297.328 715.051 294.533 711.837 291.767C710.22 290.377 708.888 288.69 708.121 286.898C707.366 285.105 707.071 283.309 706.987 281.693C706.854 278.449 707.384 275.89 707.734 274.149C708.112 272.407 708.399 271.464 708.473 271.48C708.556 271.495 708.419 272.472 708.184 274.228C707.975 275.976 707.58 278.532 707.815 281.639C707.948 283.185 708.277 284.863 709.01 286.499C709.758 288.135 710.971 289.628 712.551 290.955C715.737 293.617 719.432 296.385 723.413 299.095C725.471 300.494 727.514 301.807 729.502 303.027L728.646 303.386C730.503 295.605 733.231 289.116 735.497 284.685C736.054 283.579 736.597 282.555 737.269 281.781C737.927 280.996 738.73 280.516 739.417 280.322C740.847 279.922 741.6 280.5 741.546 280.516Z" fill="#17282F"/>
<path d="M764.723 262.965C764.805 262.963 764.908 263.924 765.041 265.659C765.186 267.638 765.364 270.092 765.578 273C765.83 276.096 766.205 279.769 766.838 283.816C767.084 285.815 767.785 287.986 767.242 290.438C766.545 292.85 764.732 294.648 762.812 296.101C760.115 298.105 757.297 299.607 755.404 301.73L754.509 302.739L754.421 301.394C753.952 294.269 751.573 288.405 749.447 284.595C747.308 280.75 745.54 278.774 745.68 278.663C745.725 278.623 746.208 279.076 747.01 279.995C747.804 280.917 748.893 282.33 750.06 284.236C752.398 288.015 754.991 293.978 755.546 301.317L754.56 300.981C756.619 298.642 759.531 297.089 762.106 295.163C763.939 293.795 765.558 292.101 766.128 290.152C766.608 288.178 766.013 286.021 765.767 283.977C765.188 279.884 764.897 276.17 764.75 273.055C764.602 269.939 764.577 267.417 764.584 265.675C764.593 263.933 764.645 262.97 764.723 262.965Z" fill="#17282F"/>
<path d="M873.09 267.295C871.724 268.908 822.158 335.236 822.158 335.236L829.133 339.194L879.998 273.709L873.09 267.295Z" fill="#17282F"/>
<path d="M673.971 319.734C673.971 319.734 726.114 394.853 729.259 396.328C735.447 399.234 806.782 337.542 813.586 331.64C814.522 330.385 816.458 327.741 820.257 322.48C820.257 322.48 825.887 296.706 831.892 298.684C837.898 300.665 828.601 311.781 832.512 321.575C836.424 331.367 854.338 308.011 855.055 305.913L859.676 299.873C859.676 299.873 864.521 313.618 864.192 319.357C863.139 337.747 845.755 359.616 845.755 359.616C845.755 359.616 767.686 456.398 714.208 459.401C698.806 460.267 671.435 416.53 653.135 383.734C642.086 363.93 647.601 338.979 665.913 325.614L673.971 319.734Z" fill="#F8A58D"/>
<path d="M855.418 322.627C855.242 322.521 856.914 319.567 858.759 315.822C860.612 312.081 861.946 308.961 862.136 309.036C862.309 309.096 861.261 312.359 859.388 316.136C857.525 319.915 855.573 322.726 855.418 322.627Z" fill="#F68260"/>
<path d="M665.145 283.076C665.145 283.076 609.176 302.989 650.788 397.179L715.396 358.154L706.207 336.13L665.145 283.076Z" fill="#33535F"/>
<path d="M660.857 284.705C660.857 284.705 663.298 284.302 667.595 285.274C669.715 285.82 672.262 286.756 674.934 288.374C677.61 289.978 680.389 292.234 683.088 295.068C688.521 300.733 693.589 308.641 698.29 317.799C703.026 326.956 707.443 337.386 711.976 348.347C713.331 351.629 714.668 354.867 715.935 357.931L716.136 358.416L715.676 358.666C696.984 368.866 680.707 378.414 669.201 385.562C663.445 389.129 658.859 392.06 655.714 394.097C654.209 395.065 653.005 395.839 652.087 396.428C651.255 396.951 650.809 397.21 650.788 397.179C650.766 397.147 651.172 396.829 651.963 396.245C652.759 395.667 653.931 394.808 655.475 393.745C658.553 391.595 663.077 388.56 668.783 384.901C680.193 377.568 696.423 367.883 715.117 357.644L714.86 358.38C713.588 355.314 712.249 352.078 710.89 348.796C706.361 337.84 701.985 327.426 697.329 318.293C692.705 309.158 687.755 301.288 682.486 295.639C679.864 292.812 677.177 290.556 674.591 288.933C672.005 287.298 669.541 286.321 667.478 285.716C663.301 284.626 660.846 284.87 660.857 284.705Z" fill="#17282F"/>
<path d="M781.253 145.061C781.293 145.052 781.388 145.388 781.53 146.043C781.634 146.701 781.776 147.692 781.693 148.969C781.569 151.471 780.658 155.349 777.425 158.736C774.298 162.127 768.353 164.266 762.361 162.542C759.425 161.684 756.463 159.898 754.648 156.947C753.769 155.487 753.239 153.671 753.496 151.852C753.74 150.072 754.635 148.267 756.262 147.198C757.89 146.092 760.025 146.124 761.675 146.85C763.346 147.559 764.726 148.921 765.373 150.571C766.694 153.88 765.72 157.461 763.894 159.947C760.009 165.091 752.996 165.506 749.109 163.162C747.057 162.219 745.247 161.33 743.543 161.026C741.845 160.676 740.337 160.974 739.232 161.479C737.023 162.544 736.128 163.722 736.026 163.593C735.997 163.564 736.223 163.3 736.687 162.815C736.915 162.571 737.199 162.267 737.607 161.987C737.997 161.682 738.448 161.333 739.041 161.064C740.17 160.462 741.818 160.065 743.651 160.378C745.491 160.644 747.4 161.522 749.443 162.4C750.471 162.819 751.544 163.271 752.694 163.478C753.821 163.672 755.083 163.65 756.325 163.41C758.81 162.964 761.357 161.599 763.021 159.306C764.653 157.064 765.46 153.799 764.311 151.013C763.303 148.29 759.515 146.446 756.905 148.179C755.633 149.007 754.858 150.503 754.65 152.008C754.438 153.524 754.865 155.051 755.638 156.358C757.223 158.979 759.948 160.687 762.665 161.502C768.236 163.165 773.827 161.265 776.834 158.151C779.966 155.031 780.982 151.349 781.237 148.93C781.503 146.458 781.124 145.077 781.253 145.061Z" fill="#33535F"/>
<path d="M769.066 230.138C769.09 230.28 768.371 230.578 767.131 230.632C765.903 230.691 764.155 230.414 762.451 229.561C760.749 228.697 759.491 227.456 758.806 226.431C758.109 225.405 757.922 224.651 758.05 224.586C758.348 224.405 759.85 226.977 762.981 228.509C766.074 230.116 769.032 229.795 769.066 230.138Z" fill="#17282F"/>
<path d="M709.945 220.166C710.046 220.067 710.68 221.159 709.864 222.711C709.465 223.438 708.709 224.223 707.566 224.534C706.414 224.857 705.046 224.48 704.065 223.616C703.073 222.761 702.523 221.491 702.582 220.34C702.616 219.196 703.098 218.269 703.612 217.639C704.692 216.367 705.792 216.249 705.813 216.376C705.896 216.545 705.017 216.944 704.284 218.127C703.527 219.243 703.231 221.396 704.836 222.731C705.574 223.372 706.529 223.652 707.316 223.48C708.119 223.32 708.768 222.792 709.163 222.267C709.981 221.17 709.76 220.191 709.945 220.166Z" fill="#17282F"/>
<path d="M784.966 152.66C785.07 152.606 785.904 154.104 786.051 156.804C786.218 159.449 785.451 163.381 782.705 166.571C779.939 169.744 776.156 171.059 773.516 171.269C770.826 171.506 769.226 170.894 769.266 170.781C769.291 170.581 770.903 170.878 773.408 170.445C775.874 170.044 779.299 168.694 781.817 165.8C784.319 162.896 785.171 159.313 785.219 156.814C785.293 154.271 784.77 152.716 784.966 152.66Z" fill="#33535F"/>
<path d="M708.725 341.429C708.869 341.72 694.004 349.371 675.526 358.513C657.042 367.659 641.946 374.836 641.804 374.545C641.66 374.254 656.524 366.606 675.005 357.459C693.483 348.317 708.583 341.138 708.725 341.429Z" fill="#DADBD8"/>
<path d="M695.176 315.842C695.332 316.129 682.098 323.534 665.625 332.382C649.145 341.233 635.668 348.173 635.515 347.886C635.361 347.602 648.59 340.197 665.07 331.347C681.544 322.498 695.023 315.556 695.176 315.842Z" fill="#DADBD8"/>
<path d="M682.089 295.149C682.166 295.298 679.616 296.76 675.468 299.07C671.035 301.543 665.456 304.661 659.285 308.106C653.142 311.61 647.591 314.78 643.182 317.295C639.063 319.651 636.493 321.077 636.405 320.937C636.324 320.801 638.738 319.125 642.756 316.583C646.769 314.04 652.391 310.649 658.708 307.082C665.021 303.519 670.832 300.458 675.08 298.335C679.332 296.212 682.019 295.009 682.089 295.149Z" fill="#DADBD8"/>
<path d="M731.599 290.258C731.567 290.391 729.834 290.165 727.243 289.084C724.655 288.026 721.303 285.989 718.126 283.146C714.95 280.304 712.486 277.346 710.774 275.178C709.072 272.998 708.11 271.584 708.229 271.482C708.358 271.376 709.548 272.608 711.408 274.641C713.272 276.662 715.804 279.494 718.909 282.266C722.006 285.041 725.165 287.11 727.593 288.331C730.016 289.572 731.648 290.077 731.599 290.258Z" fill="#DADBD8"/>
<path d="M764.487 278.036C764.771 278.12 763.405 281.791 759.802 284.798C756.229 287.842 752.38 288.561 752.347 288.266C752.232 287.93 755.701 286.759 759.047 283.9C762.431 281.089 764.173 277.867 764.487 278.036Z" fill="#DADBD8"/>
<path d="M823.109 311.989C823.111 312.03 822.678 312.109 821.851 312.224C820.893 312.341 819.693 312.49 818.226 312.67C815.072 313.02 810.502 313.46 804.848 313.9C793.537 314.802 777.894 315.687 760.6 316.316C743.302 316.921 727.631 317.156 716.289 317.063C710.617 317.029 706.027 316.914 702.859 316.792C701.38 316.716 700.174 316.655 699.211 316.605C698.375 316.549 697.938 316.501 697.94 316.461C697.942 316.42 698.38 316.388 699.214 316.368C700.179 316.359 701.387 316.348 702.866 316.334C706.198 316.309 710.743 316.276 716.287 316.233C727.617 316.113 743.27 315.748 760.557 315.143C777.837 314.511 793.479 313.76 804.792 313.072C810.324 312.718 814.858 312.429 818.183 312.215C819.66 312.124 820.864 312.05 821.828 311.989C822.663 311.951 823.104 311.948 823.109 311.989Z" fill="#DADBD8"/>
<path d="M805.304 338.742C805.313 338.824 803.991 339.027 801.599 339.327C799.205 339.625 795.736 339.999 791.441 340.385C782.852 341.177 770.966 341.996 757.818 342.531C744.666 343.059 732.746 343.203 724.123 343.106C719.813 343.07 716.323 342.975 713.915 342.871C711.505 342.765 710.175 342.668 710.177 342.587C710.177 342.506 711.512 342.449 713.922 342.413C716.53 342.377 719.971 342.332 724.121 342.276C732.737 342.158 744.634 341.883 757.769 341.357C770.901 340.823 782.782 340.137 791.376 339.557C795.519 339.277 798.953 339.047 801.557 338.871C803.96 338.711 805.295 338.661 805.304 338.742Z" fill="#DADBD8"/>
<path d="M764.893 371.741C764.906 371.899 762.054 372.318 757.422 372.794C752.789 373.273 746.37 373.787 739.273 374.141C732.174 374.493 725.738 374.619 721.08 374.606C716.42 374.592 713.541 374.457 713.541 374.299C713.539 374.132 716.415 373.972 721.064 373.773C726.046 373.552 732.298 373.275 739.217 372.968C746.127 372.587 752.376 372.242 757.356 371.966C761.998 371.702 764.877 371.576 764.893 371.741Z" fill="#DADBD8"/>
<path d="M713.23 293.439C713.223 293.773 706.306 293.849 697.798 294.206C689.281 294.549 682.387 295.041 682.348 294.709C682.312 294.398 689.188 293.376 697.748 293.033C706.304 292.674 713.241 293.125 713.23 293.439Z" fill="#DADBD8"/>
<path d="M808.34 292.221C808.338 292.543 799.368 292.773 788.305 292.73C777.24 292.69 768.274 292.392 768.274 292.067C768.277 291.745 777.245 291.514 788.31 291.557C799.372 291.598 808.34 291.893 808.34 292.221Z" fill="#DADBD8"/>
<path d="M811.801 429.507C811.837 429.579 811.102 429.994 809.747 430.687C808.394 431.386 806.392 432.307 803.881 433.36C798.867 435.47 791.739 437.963 783.632 439.84C775.52 441.704 768.02 442.586 762.586 442.884C759.87 443.039 757.665 443.089 756.143 443.051C754.624 443.024 753.785 442.969 753.783 442.888C753.78 442.701 757.135 442.57 762.523 442.058C767.909 441.548 775.324 440.544 783.368 438.694C791.405 436.835 798.511 434.489 803.577 432.587C808.647 430.689 811.722 429.336 811.801 429.507Z" fill="#DADBD8"/>
<path d="M105.221 643.419C105.221 694.873 148.916 736.586 202.816 736.586C256.716 736.586 300.412 694.873 300.412 643.419C300.412 591.961 256.716 550.247 202.816 550.247C148.916 550.247 105.221 591.961 105.221 643.419Z" fill="#DADBD8"/>
<path d="M182.931 418.777C167.448 419.585 161.37 435.736 159.518 439.342C157.666 442.947 157.378 447.123 157.037 451.162C156.697 455.202 156.218 459.397 154.067 462.83C150.658 468.275 143.5 471.086 141.548 477.207C139.34 484.126 145.005 491.529 143.495 498.633C142.685 502.446 139.903 505.584 138.919 509.357C137.893 513.296 138.963 517.553 141.009 521.071C146.094 529.811 156.635 534.201 166.736 534.562C176.836 534.923 186.716 531.9 196.372 528.908" fill="#17282F"/>
<path d="M251.062 438.854C249.547 442.132 250.978 446.117 253.352 448.835C255.731 451.556 258.923 453.404 261.734 455.669C264.545 457.937 267.129 460.926 267.456 464.525C267.756 467.828 266.097 471.106 266.547 474.393C267.704 482.84 281.163 485.374 281.88 493.868C282.358 499.524 276.555 504.722 278.162 510.164C278.78 512.251 280.394 513.866 281.515 515.73C285.334 522.077 282.743 530.833 277.211 535.753C271.676 540.676 263.982 542.409 256.587 542.743C250.367 543.023 243.302 542.003 239.638 536.965C236.288 532.356 236.976 526.068 237.645 520.407C240.77 493.967 240.24 467.25 239.704 440.632" fill="#17282F"/>
<path d="M186.998 561.207C187.116 547.316 186.986 532.69 186.986 532.69C186.986 532.69 169.141 529.513 165.706 506.126C162.43 483.819 167.986 435.845 167.986 435.845C193.841 425.64 222.951 429.588 241.063 450.413L238.248 563.211C237.921 576.306 226.41 586.456 212.402 585.996H212.401C198.253 585.533 186.886 574.44 186.998 561.207Z" fill="#F8A58D"/>
<path d="M172.844 472.683C172.77 474.262 174.046 475.629 175.694 475.738C177.339 475.844 178.735 474.652 178.809 473.073C178.883 471.491 177.607 470.127 175.963 470.018C174.314 469.91 172.918 471.103 172.844 472.683Z" fill="#17282F"/>
<path d="M168.033 470.366C168.398 470.763 170.684 469.109 173.904 469.154C179.962 470.034 179.851 470.959 179.817 470.449C179.992 470.276 179.621 469.567 178.601 468.807C177.597 468.049 175.878 467.302 173.873 467.289C171.867 467.275 170.172 467.995 169.193 468.739C168.195 469.488 167.851 470.19 168.033 470.366Z" fill="#17282F"/>
<path d="M205.795 473.633C205.721 475.214 206.997 476.579 208.644 476.688C210.288 476.796 211.684 475.605 211.759 474.025C211.833 472.444 210.557 471.074 208.913 470.968C207.264 470.86 205.868 472.053 205.795 473.633Z" fill="#17282F"/>
<path d="M201.61 471.48C201.976 471.875 204.265 470.221 207.483 470.269C210.698 470.267 213.042 471.954 213.397 471.562C213.569 471.39 213.204 470.682 212.179 469.919C211.176 469.161 209.456 468.417 207.452 468.401C205.447 468.387 203.751 469.107 202.773 469.851C201.777 470.6 201.43 471.302 201.61 471.48Z" fill="#17282F"/>
<path d="M189.651 494.592C189.667 494.41 187.67 494.04 184.432 493.586C183.612 493.491 182.834 493.32 182.702 492.756C182.516 492.16 182.871 491.278 183.279 490.324C184.075 488.343 184.908 486.265 185.784 484.088C189.262 475.207 191.791 467.902 191.433 467.767C191.075 467.629 187.963 474.716 184.484 483.596C183.646 485.784 182.845 487.871 182.081 489.87C181.76 490.802 181.213 491.856 181.618 493.094C181.833 493.71 182.43 494.164 182.956 494.313C183.481 494.479 183.943 494.493 184.351 494.522C187.611 494.737 189.636 494.775 189.651 494.592Z" fill="#17282F"/>
<path d="M186.986 532.69C186.986 532.69 202.668 533.885 218.324 524.712C218.324 524.712 210.56 540.663 187.237 538.208L186.986 532.69Z" fill="#F68260"/>
<path d="M190.922 502.372C192.097 500.853 194.136 500.036 196.147 500.276C197.542 500.443 198.946 501.133 199.782 502.281C200.617 503.43 200.777 505.05 199.993 506.126C199.11 507.337 197.291 507.597 195.759 507.143C194.228 506.69 192.918 505.661 191.673 504.639C191.33 504.355 190.977 504.059 190.765 503.676C190.552 503.29 190.512 502.791 190.784 502.475" fill="#F68260"/>
<path d="M199.099 496.93C198.575 496.894 198.529 500.391 195.51 502.839C192.495 505.293 188.774 504.858 188.74 505.345C188.69 505.566 189.563 506.036 191.135 506.096C192.676 506.169 194.934 505.699 196.782 504.201C198.624 502.699 199.431 500.677 199.569 499.242C199.719 497.785 199.338 496.912 199.099 496.93Z" fill="#17282F"/>
<path d="M230.929 433.751C222.395 445.934 199.796 458.463 183.614 461.368C185.503 458.88 195.444 452.748 197.333 450.257C189.996 455.739 179.499 463.074 169.768 463.568C168.618 463.627 167.37 463.625 166.423 463.047C165.133 462.262 164.87 460.732 164.72 459.378C164.093 453.673 164.487 443.888 165.395 438.223C166.301 432.56 168.903 426.926 173.813 423.129C180.049 418.31 188.972 417.119 197.378 416.918C204.43 416.746 211.698 417.164 218.144 419.711C224.589 422.258 230.102 427.289 231.044 433.34" fill="#17282F"/>
<path d="M255.404 488.329C256.579 482.287 257.516 476.552 257.733 472.724C258.423 460.676 254.946 416.209 213.437 419.788L211.763 432.44C211.763 432.44 205.347 475.745 232.197 476.063C232.197 476.063 233.68 488.966 245.838 501.517C245.838 501.517 252.881 501.302 255.404 488.329Z" fill="#17282F"/>
<path d="M232.196 476.063C234.697 475.609 237.334 475.708 239.702 476.631C242.069 477.554 244.141 479.35 245.139 481.687C246.142 484.031 246.009 486.761 245.117 489.151C244.226 491.538 242.63 493.609 240.795 495.377C239.478 496.65 237.984 497.807 236.232 498.335C234.48 498.861 232.429 498.665 231.044 497.467" fill="#F8A58D"/>
<path d="M233.401 491.215C233.114 491.305 234.183 492.828 236.469 492.239C237.571 491.962 238.653 491.007 239.316 489.809C239.983 488.589 240.423 487.251 240.606 485.681C240.782 484.124 240.446 482.463 239.603 481.272C238.798 480.061 237.47 479.334 236.347 479.298C234 479.217 233.256 480.837 233.522 480.886C233.707 481.078 234.627 480.25 236.16 480.638C237.628 480.925 239.05 482.971 238.703 485.491C238.394 488.054 237.382 490.394 236.009 490.965C234.577 491.675 233.561 491.01 233.401 491.215Z" fill="#F68260"/>
<path d="M236.728 429.187C239.905 430.998 243.796 431.51 247.333 430.581C250.868 429.651 254.008 427.289 255.882 424.149C257.092 422.12 257.787 419.659 257.194 417.373C256.382 414.246 253.346 412.137 250.221 411.325C245.692 410.145 240.558 411.275 237.134 414.47C233.709 417.665 232.235 422.892 233.754 427.323C235.274 431.754 239.846 435.026 244.522 434.757" fill="#17282F"/>
<path d="M240.511 496.53C238.202 498.198 235.865 499.892 234.059 502.099C232.255 504.303 231.013 507.119 231.274 509.954C231.421 511.543 232.027 513.113 231.798 514.69C231.482 516.861 229.701 518.469 228.526 520.319C225.49 525.109 226.795 531.828 230.634 535.997C234.474 540.171 240.308 542.053 245.971 542.238C249.256 542.346 252.705 541.883 255.399 539.997C259.279 537.279 260.774 532.182 260.873 527.44" fill="#17282F"/>
<path d="M243.329 438.505C243.45 438.577 242.628 440.273 240.883 442.764C239.147 445.253 236.412 448.484 232.888 451.518C229.358 454.548 225.755 456.77 223.036 458.115C220.314 459.464 218.516 460.024 218.462 459.893C218.292 459.552 225.222 456.624 232.124 450.629C239.081 444.702 243.018 438.286 243.329 438.505Z" fill="#33535F"/>
<path d="M247.635 438.274C247.763 438.29 247.68 440.499 246.871 443.969C246.07 447.432 244.4 452.125 241.597 456.804C238.779 461.477 235.416 465.15 232.733 467.482C230.05 469.822 228.138 470.93 228.066 470.824C227.789 470.533 235.116 465.436 240.59 456.2C246.181 447.033 247.247 438.164 247.635 438.274Z" fill="#33535F"/>
<path d="M157.516 457.077C157.863 457.055 158.307 460.962 159.655 465.576C160.972 470.201 162.677 473.746 162.372 473.91C162.115 474.071 159.889 470.675 158.526 465.903C157.138 461.141 157.215 457.08 157.516 457.077Z" fill="#33535F"/>
<path d="M256.948 536.9C257.009 536.755 257.994 537.951 260.38 538.003C261.536 538.014 262.997 537.678 264.352 536.748C265.705 535.837 266.814 534.194 267.359 532.191C267.905 530.174 267.916 527.823 267.402 525.391C266.917 522.941 265.968 520.409 265.132 517.648C264.318 514.9 263.606 511.807 264.129 508.556C264.65 505.248 266.789 502.568 267.835 499.599C268.899 496.636 268.471 493.354 267.168 490.698C265.835 488.007 263.59 486.051 260.988 485.044C259.697 484.494 258.36 484.027 257.12 483.352C255.886 482.689 254.734 481.766 254.033 480.584C252.588 478.206 252.647 475.625 252.64 473.488C252.681 471.302 252.798 469.387 252.408 467.749C252.056 466.113 251.445 464.771 250.715 463.864C249.2 462.005 247.597 462.135 247.674 461.984C247.674 461.962 248.021 461.907 248.659 462.059C249.292 462.196 250.221 462.63 251.064 463.568C251.907 464.5 252.618 465.896 253.048 467.602C253.522 469.319 253.456 471.359 253.47 473.486C253.515 475.6 253.564 478.046 254.854 480.06C256.116 482.132 258.743 482.991 261.408 484.047C264.158 485.062 266.762 487.264 268.196 490.184C269.636 493.072 270.123 496.684 268.944 499.987C267.77 503.224 265.711 505.801 265.265 508.75C264.769 511.692 265.396 514.643 266.169 517.343C266.96 520.06 267.894 522.647 268.358 525.204C268.852 527.753 268.8 530.266 268.157 532.419C267.515 534.569 266.257 536.333 264.717 537.294C263.191 538.26 261.608 538.542 260.364 538.459C259.106 538.386 258.197 537.94 257.665 537.576C257.126 537.204 256.948 536.9 256.948 536.9Z" fill="#33535F"/>
<path d="M240.671 535.314C240.777 535.246 240.966 536.035 242.06 536.534C243.043 537.01 245.236 537.039 246.436 535.347C247.655 533.642 247.466 530.772 246.071 528.286C244.786 525.734 242.229 523.239 241.577 519.514C241.233 517.713 241.663 515.662 242.831 514.309C243.933 512.946 245.232 512.039 246.075 510.925C247.775 508.677 247.919 505.86 247.644 503.723C247.356 501.532 246.729 499.802 246.352 498.601C245.958 497.403 245.755 496.727 245.832 496.695C245.904 496.666 246.249 497.279 246.778 498.437C247.288 499.596 248.05 501.302 248.467 503.599C248.853 505.844 248.85 508.912 246.938 511.579C245.978 512.872 244.668 513.824 243.737 515.017C242.775 516.179 242.457 517.727 242.736 519.322C243.266 522.564 245.662 525.025 247.029 527.787C248.49 530.506 248.681 533.815 247.105 535.837C246.343 536.875 245.187 537.303 244.244 537.403C243.28 537.497 242.439 537.292 241.852 536.94C240.644 536.202 240.628 535.277 240.671 535.314Z" fill="#33535F"/>
<path d="M152.301 529.418C152.243 529.468 151.576 528.832 150.465 527.584C149.388 526.323 147.745 524.475 146.532 521.653C145.932 520.245 145.539 518.559 145.586 516.727C145.627 514.918 146.164 512.878 147.573 511.263C148.969 509.641 150.997 508.804 152.219 507.285C153.481 505.783 153.641 503.574 153.151 501.478C152.665 499.342 151.682 497.428 150.679 495.517C149.708 493.6 148.814 491.648 148.487 489.597C148.127 487.56 148.577 485.419 149.647 483.9C150.687 482.362 151.991 481.31 153.083 480.318C155.357 478.445 156.645 476.408 156.931 474.822C157.247 473.233 156.704 472.367 156.835 472.335C156.863 472.32 157.013 472.507 157.176 472.929C157.342 473.346 157.489 474.028 157.383 474.892C157.232 476.633 155.898 478.944 153.645 480.929C152.582 481.962 151.354 483.034 150.465 484.431C149.554 485.809 149.215 487.585 149.554 489.421C149.874 491.262 150.73 493.112 151.702 494.992C152.695 496.851 153.776 498.913 154.297 501.219C154.84 503.479 154.681 506.166 153.112 508.01C151.579 509.815 149.563 510.595 148.383 511.98C147.164 513.332 146.635 515.112 146.558 516.768C146.476 518.435 146.786 520.003 147.303 521.346C148.349 524.051 149.858 525.962 150.819 527.297C151.815 528.622 152.366 529.364 152.301 529.418Z" fill="#33535F"/>
<path d="M246.318 432.135C246.001 432.296 244.431 428.842 240.822 426.159C237.26 423.411 233.511 422.842 233.579 422.493C233.533 422.193 237.664 422.26 241.53 425.223C245.43 428.14 246.621 432.097 246.318 432.135Z" fill="#FF6A00"/>
<path d="M249.574 410.533C249.691 410.459 250.446 411.341 251.055 413.094C251.668 414.817 252.02 417.48 251.255 420.252C250.489 423.023 248.823 425.126 247.412 426.292C245.989 427.483 244.889 427.851 244.826 427.729C244.733 427.571 245.655 426.953 246.841 425.69C248.025 424.442 249.429 422.452 250.124 419.939C250.816 417.426 250.633 414.996 250.257 413.317C249.887 411.623 249.411 410.621 249.574 410.533Z" fill="#33535F"/>
<path d="M135.092 688.075H135.091L136.831 675.504L136.832 675.506C136.299 679.508 135.713 683.761 135.092 688.075Z" fill="#8F9192"/>
<path d="M101.955 638.214L112.757 610.493L151.472 634.837L116.975 688.075C116.975 688.075 102.942 669.832 101.955 638.214Z" fill="#F68260"/>
<path d="M145.644 561.622C163.657 552.205 186.986 549.493 186.986 549.493C193.758 563.055 215.097 564.777 228.017 555.522L238.912 548.149C238.912 548.149 240.601 548.083 243.478 548.336C268.964 550.592 289.825 569.641 295.019 594.713C296.91 603.839 298.303 614.312 297.744 624.025C296.329 648.671 270.822 650.9 270.822 650.9C270.822 650.9 269.51 675.262 267.785 694.94C266.505 709.644 258.882 720.627 245.48 726.781C235.501 731.361 229.998 733.48 217.043 735.551C184.38 740.781 153.003 728.372 132.315 706.194C136.183 682.714 139.88 652.32 139.617 650.959C139.561 650.673 139.66 650.51 139.66 650.51L114.38 628.052L100.053 616.011C100.053 616.011 131.496 569.311 145.644 561.622Z" fill="#FF6A00"/>
<path d="M176.968 576.813C176.872 577.045 174.81 575.08 170.719 575.083C168.739 575.087 166.285 575.662 164.271 577.321C163.269 578.126 162.415 579.268 161.402 580.405C160.412 581.517 159.129 582.787 157.31 583.121C155.49 583.462 153.808 582.661 152.548 581.846C151.249 581.014 150.14 580.102 148.999 579.448C146.77 578.081 144.232 578.21 142.386 578.871C140.502 579.532 139.254 580.662 138.542 581.524C137.833 582.404 137.575 582.999 137.478 582.959C137.425 582.943 137.537 582.275 138.173 581.255C138.811 580.254 140.068 578.925 142.091 578.092C144.047 577.262 146.965 577.007 149.531 578.505C150.789 579.195 151.931 580.107 153.159 580.87C154.372 581.637 155.735 582.228 157.103 581.964C158.469 581.727 159.578 580.712 160.549 579.633C161.533 578.559 162.434 577.377 163.596 576.475C165.902 574.665 168.605 574.151 170.731 574.25C172.889 574.349 174.551 575.013 175.56 575.631C176.577 576.258 177.005 576.772 176.968 576.813Z" fill="#FAFAF9"/>
<path d="M202.654 610.493C202.491 610.682 201.164 608.162 197.285 606.856C195.409 606.229 192.901 605.99 190.464 606.915C189.256 607.359 188.082 608.169 186.759 608.923C185.464 609.66 183.844 610.45 182.015 610.186C180.181 609.929 178.844 608.631 177.91 607.454C176.943 606.253 176.182 605.035 175.31 604.047C173.636 602.041 171.191 601.351 169.229 601.387C167.233 601.41 165.689 602.082 164.74 602.673C163.788 603.28 163.351 603.76 163.274 603.691C163.228 603.661 163.547 603.063 164.476 602.298C165.399 601.556 167.015 600.697 169.197 600.557C171.317 600.394 174.163 601.085 176.116 603.325C177.088 604.383 177.879 605.61 178.8 606.725C179.705 607.84 180.807 608.837 182.187 609.024C183.557 609.234 184.932 608.629 186.195 607.916C187.472 607.212 188.703 606.382 190.092 605.899C192.855 604.92 195.58 605.299 197.563 606.073C199.578 606.858 200.94 608.016 201.7 608.925C202.463 609.845 202.705 610.466 202.654 610.493Z" fill="#FAFAF9"/>
<path d="M259.71 561.173C259.665 561.422 257.234 559.937 253.235 560.806C251.303 561.232 249.028 562.313 247.409 564.361C246.6 565.361 246.007 566.656 245.259 567.983C244.524 569.28 243.539 570.791 241.834 571.504C240.128 572.224 238.313 571.795 236.911 571.265C235.463 570.73 234.187 570.074 232.934 569.675C230.465 568.811 228.014 569.476 226.346 570.512C224.647 571.559 223.665 572.926 223.153 573.921C222.646 574.929 222.519 575.568 222.415 575.547C222.361 575.543 222.33 574.868 222.735 573.736C223.147 572.623 224.093 571.053 225.895 569.817C227.631 568.589 230.429 567.721 233.254 568.641C234.629 569.05 235.937 569.697 237.298 570.185C238.649 570.674 240.105 570.965 241.386 570.417C242.668 569.896 243.539 568.668 244.26 567.409C244.995 566.151 245.626 564.806 246.571 563.678C248.442 561.422 250.974 560.345 253.073 559.991C255.203 559.633 256.968 559.928 258.087 560.318C259.212 560.713 259.739 561.124 259.71 561.173Z" fill="#FAFAF9"/>
<path d="M233.382 598.192C233.218 598.346 232.255 596.39 229.336 595.289C227.922 594.756 226.019 594.501 224.146 595.126C223.221 595.422 222.295 596.002 221.244 596.543C220.218 597.071 218.913 597.644 217.46 597.367C216.003 597.094 214.991 596.011 214.31 595.065C213.603 594.095 213.063 593.132 212.436 592.349C211.245 590.772 209.429 590.158 207.934 590.104C204.812 590.009 203.369 591.78 203.265 591.575C203.218 591.537 203.472 591.074 204.212 590.501C204.948 589.942 206.233 589.314 207.941 589.272C209.599 589.206 211.813 589.842 213.273 591.663C213.995 592.52 214.567 593.495 215.233 594.377C215.889 595.259 216.678 596.033 217.682 596.214C219.757 596.579 221.66 594.713 223.822 594.093C226.024 593.432 228.134 593.836 229.649 594.519C232.781 595.961 233.502 598.215 233.382 598.192Z" fill="#FAFAF9"/>
<path d="M175.318 629.372C175.154 629.526 174.19 627.572 171.271 626.469C169.858 625.941 167.956 625.681 166.083 626.308C165.158 626.604 164.231 627.184 163.18 627.725C162.155 628.251 160.849 628.826 159.395 628.549C157.939 628.276 156.927 627.193 156.246 626.245C155.538 625.277 154.998 624.312 154.371 623.531C153.182 621.952 151.365 621.338 149.871 621.284C146.749 621.189 145.305 622.96 145.201 622.757C145.155 622.719 145.407 622.259 146.148 621.683C146.883 621.124 148.169 620.494 149.878 620.454C151.536 620.388 153.75 621.022 155.209 622.843C155.931 623.7 156.502 624.677 157.168 625.559C157.824 626.442 158.614 627.213 159.619 627.396C161.693 627.759 163.595 625.893 165.758 625.275C167.96 624.614 170.072 625.016 171.584 625.699C174.716 627.146 175.437 629.399 175.318 629.372Z" fill="#FAFAF9"/>
<path d="M229.597 630.076C229.491 630.275 227.947 628.738 224.828 628.639C223.32 628.594 221.438 628.966 219.868 630.169C219.088 630.746 218.399 631.595 217.58 632.447C216.778 633.278 215.729 634.243 214.264 634.453C212.798 634.667 211.491 633.968 210.54 633.293C209.557 632.608 208.734 631.868 207.888 631.331C206.251 630.223 204.336 630.232 202.903 630.663C199.918 631.585 199.126 633.729 198.962 633.569C198.905 633.551 198.995 633.029 199.51 632.244C200.025 631.479 201.038 630.469 202.64 629.875C204.189 629.277 206.489 629.16 208.458 630.412C209.42 630.988 210.275 631.725 211.19 632.344C212.097 632.969 213.093 633.442 214.103 633.289C216.183 632.962 217.38 630.579 219.226 629.296C221.096 627.958 223.224 627.653 224.876 627.811C228.308 628.163 229.719 630.063 229.597 630.076Z" fill="#FAFAF9"/>
<path d="M211.668 654.853C211.561 655.054 210.018 653.515 206.898 653.418C205.391 653.373 203.509 653.745 201.938 654.943C201.159 655.525 200.47 656.374 199.65 657.227C198.848 658.057 197.8 659.022 196.334 659.23C194.869 659.444 193.561 658.747 192.611 658.073C191.628 657.385 190.805 656.647 189.959 656.11C188.323 655 186.406 655.009 184.974 655.442C181.989 656.365 181.196 658.506 181.032 658.348C180.975 658.328 181.065 657.809 181.58 657.024C182.097 656.256 183.11 655.248 184.71 654.652C186.26 654.054 188.559 653.937 190.53 655.189C191.49 655.765 192.346 656.502 193.261 657.123C194.167 657.746 195.164 658.219 196.175 658.068C198.253 657.739 199.449 655.359 201.298 654.073C203.166 652.732 205.294 652.432 206.947 652.588C210.377 652.94 211.789 654.84 211.668 654.853Z" fill="#FAFAF9"/>
<path d="M173.804 716.358C173.642 716.515 172.651 714.573 169.716 713.513C168.295 713.001 166.392 712.772 164.528 713.425C163.606 713.734 162.688 714.325 161.644 714.88C160.625 715.423 159.328 716.015 157.872 715.76C156.411 715.507 155.385 714.438 154.69 713.504C153.968 712.543 153.415 711.586 152.777 710.815C151.565 709.251 149.74 708.667 148.245 708.631C145.121 708.581 143.703 710.372 143.596 710.172C143.549 710.133 143.796 709.668 144.529 709.082C145.257 708.513 146.533 707.868 148.24 707.8C149.897 707.712 152.12 708.315 153.604 710.115C154.34 710.961 154.923 711.929 155.601 712.802C156.272 713.675 157.07 714.436 158.079 714.603C160.157 714.939 162.033 713.046 164.188 712.396C166.379 711.703 168.497 712.075 170.019 712.739C173.171 714.138 173.924 716.381 173.804 716.358Z" fill="#FAFAF9"/>
<path d="M218.109 729.442C218 729.637 216.479 728.078 213.36 727.939C211.852 727.871 209.966 728.221 208.379 729.396C207.592 729.965 206.89 730.804 206.059 731.646C205.247 732.463 204.184 733.415 202.716 733.604C201.248 733.795 199.95 733.082 199.01 732.395C198.036 731.693 197.223 730.944 196.384 730.393C194.763 729.263 192.847 729.248 191.408 729.657C188.413 730.54 187.59 732.67 187.427 732.509C187.371 732.487 187.469 731.97 187.994 731.195C188.521 730.434 189.548 729.439 191.158 728.866C192.714 728.291 195.015 728.205 196.968 729.482C197.92 730.073 198.765 730.822 199.673 731.454C200.57 732.088 201.56 732.577 202.572 732.44C204.656 732.139 205.885 729.776 207.751 728.515C209.637 727.203 211.77 726.93 213.419 727.109C216.845 727.508 218.23 729.428 218.109 729.442Z" fill="#FAFAF9"/>
<path d="M72.1103 542.858C73.4799 544.473 123.046 610.802 123.046 610.802L116.069 614.757L65.2036 549.272L72.1103 542.858Z" fill="#17282F"/>
<path d="M265.578 590.183C265.578 590.183 219.088 670.416 215.946 671.894C209.758 674.8 138.42 613.105 131.618 607.203C130.681 605.951 128.745 603.305 124.945 598.043C124.945 598.043 119.318 572.269 113.311 574.248C107.305 576.229 116.602 587.347 112.691 597.139C108.778 606.933 90.8649 583.575 90.1471 581.476L85.5273 575.437C85.5273 575.437 80.683 589.181 81.0105 594.921C82.062 613.311 99.4467 635.18 99.4467 635.18C99.4467 635.18 170.087 723.765 223.564 726.768C238.969 727.634 268.387 683.258 286.689 650.463C297.738 630.656 292.609 610.538 274.294 597.175L265.578 590.183Z" fill="#F8A58D"/>
<path d="M89.7869 598.192C89.6309 598.294 87.6759 595.481 85.8135 591.699C83.9393 587.922 82.8924 584.665 83.0666 584.599C83.256 584.527 84.5893 587.647 86.4447 591.386C88.2906 595.131 89.9585 598.084 89.7869 598.192Z" fill="#F68260"/>
<path d="M263.394 567.861C261.556 568.966 218.324 649.283 218.324 649.283L273.972 692.905C273.972 692.905 288.447 657.218 296.083 628.204C298.157 620.33 297.089 599.286 294.162 591.169C290.005 579.633 283.738 582.508 274.348 575.748L263.394 567.861Z" fill="#FF6A00"/>
<path d="M271.102 690.663C271.047 690.663 270.68 690.415 270.024 689.939C269.544 689.582 268.973 689.158 268.311 688.664C268.315 688.603 268.32 688.542 268.326 688.479L271.108 690.661C271.106 690.663 271.106 690.663 271.102 690.663Z" fill="#353638"/>
<path d="M268.311 688.664C267.912 688.368 267.479 688.046 267.01 687.698C266.365 687.204 265.659 686.665 264.895 686.081C264.938 686.017 264.981 685.952 265.024 685.891L268.326 688.479C268.32 688.542 268.315 688.603 268.311 688.664ZM226.4 656.281C223.671 654.161 220.856 651.974 217.972 649.732L217.584 649.429L217.83 649.001C221.196 643.121 224.778 636.869 228.466 630.43C228.599 630.198 228.732 629.966 228.865 629.736C228.871 629.738 228.876 629.742 228.883 629.745C222.775 641.012 218.324 649.283 218.324 649.283L226.678 655.832C226.585 655.981 226.493 656.135 226.4 656.281ZM229.049 629.435C229.047 629.433 229.045 629.431 229.04 629.429C229.106 629.318 229.169 629.208 229.232 629.097C229.171 629.212 229.11 629.32 229.049 629.435Z" fill="#440D17"/>
<path d="M228.882 629.745C228.876 629.742 228.871 629.738 228.864 629.736C228.923 629.634 228.981 629.53 229.04 629.429C229.045 629.431 229.047 629.433 229.049 629.436C228.993 629.539 228.936 629.641 228.882 629.745Z" fill="#3C3E40"/>
<path d="M264.895 686.081C262.462 684.219 259.433 681.904 255.88 679.186C248.165 673.191 238.036 665.322 226.4 656.281C226.493 656.135 226.585 655.981 226.678 655.832L265.024 685.891C264.981 685.952 264.938 686.017 264.895 686.081Z" fill="#432923"/>
<path d="M281.671 567.863C281.649 567.836 281.627 567.81 281.603 567.783C281.656 567.827 281.678 567.854 281.674 567.861C281.671 567.861 281.671 567.863 281.671 567.863Z" fill="#0B1214"/>
<path d="M266.572 570.151L265.998 569.736C266.509 569.298 267.023 568.887 267.542 568.508C270.139 566.608 272.871 565.55 275.178 565.546C275.275 565.544 275.369 565.541 275.464 565.541C277.626 565.541 279.231 566.245 280.196 566.821C280.733 567.085 281.069 567.4 281.323 567.565C281.452 567.66 281.546 567.732 281.603 567.782C281.628 567.809 281.65 567.836 281.673 567.863C281.67 567.865 281.668 567.865 281.661 567.865C281.574 567.865 281.062 567.52 280.088 567.03C279.157 566.552 277.691 565.984 275.789 565.984C275.595 565.984 275.396 565.99 275.196 566.002C273.002 566.074 270.421 567.141 267.934 569.036C267.479 569.381 267.023 569.754 266.572 570.151Z" fill="#440D17"/>
<path d="M271.108 690.66L268.326 688.479L265.024 685.891L226.678 655.832L218.324 649.283C218.324 649.283 222.775 641.012 228.883 629.744C228.937 629.641 228.993 629.539 229.049 629.435C229.11 629.32 229.171 629.212 229.232 629.097C235.044 619.001 240.579 609.383 245.642 600.584C248.291 596.008 250.809 591.656 253.17 587.577C255.564 583.545 257.582 579.595 260.017 576.357C261.928 573.756 263.933 571.507 265.998 569.735L266.572 570.151C264.55 571.928 262.575 574.203 260.691 576.845C258.339 580.053 256.398 583.963 254.024 588.044C251.693 592.141 249.206 596.511 246.591 601.107C241.327 610.308 235.554 620.404 229.489 631.008C225.877 637.287 222.369 643.387 219.063 649.141C233.973 660.933 246.95 671.194 256.326 678.61C260.912 682.295 264.604 685.261 267.251 687.389C268.45 688.377 269.411 689.171 270.148 689.778C270.8 690.331 271.129 690.633 271.108 690.66Z" fill="#440D17"/>
<path d="M265.057 643.173C264.893 643.329 263.93 641.373 261.008 640.269C259.597 639.742 257.694 639.482 255.823 640.109C254.896 640.407 253.97 640.985 252.919 641.526C251.894 642.052 250.586 642.627 249.134 642.35C247.678 642.077 246.665 640.991 245.985 640.046C245.277 639.078 244.738 638.113 244.109 637.33C242.921 635.753 241.104 635.141 239.609 635.085C236.487 634.99 235.044 636.761 234.94 636.56C234.893 636.52 235.145 636.059 235.887 635.484C236.624 634.925 237.907 634.297 239.616 634.255C241.275 634.189 243.489 634.823 244.948 636.646C245.669 637.503 246.242 638.478 246.907 639.36C247.563 640.242 248.352 641.014 249.36 641.197C251.431 641.56 253.334 639.694 255.498 639.076C257.699 638.415 259.809 638.819 261.324 639.5C264.455 640.946 265.177 643.2 265.057 643.173Z" fill="#FAFAF9"/>
<path d="M290.492 632.786C290.291 632.89 289.892 630.746 287.376 628.896C286.159 628.005 284.398 627.245 282.426 627.342C281.454 627.376 280.406 627.685 279.247 627.922C278.117 628.152 276.706 628.353 275.38 627.694C274.053 627.037 273.37 625.722 272.97 624.625C272.549 623.502 272.29 622.428 271.897 621.505C271.176 619.664 269.593 618.583 268.168 618.128C265.186 617.196 263.319 618.511 263.274 618.286C263.24 618.236 263.608 617.859 264.476 617.505C265.335 617.167 266.741 616.909 268.398 617.329C270.013 617.715 271.974 618.922 272.887 621.07C273.351 622.09 273.64 623.184 274.044 624.213C274.438 625.241 274.988 626.198 275.908 626.642C277.806 627.554 280.142 626.27 282.392 626.259C284.689 626.218 286.612 627.173 287.886 628.24C290.512 630.476 290.6 632.842 290.492 632.786Z" fill="#FAFAF9"/>
<path d="M291.799 599.584C291.599 599.688 291.198 597.547 288.684 595.695C287.466 594.803 285.706 594.043 283.733 594.14C282.761 594.174 281.713 594.483 280.554 594.722C279.425 594.95 278.011 595.151 276.688 594.492C275.36 593.836 274.677 592.52 274.276 591.426C273.856 590.302 273.595 589.226 273.203 588.306C272.481 586.463 270.899 585.382 269.474 584.926C266.493 583.994 264.627 585.31 264.579 585.084C264.545 585.037 264.913 584.66 265.783 584.303C266.642 583.965 268.049 583.71 269.704 584.127C271.318 584.513 273.279 585.72 274.194 587.868C274.659 588.89 274.945 589.984 275.349 591.013C275.743 592.04 276.296 592.996 277.213 593.443C279.111 594.355 281.447 593.069 283.697 593.057C285.994 593.017 287.92 593.975 289.193 595.04C291.82 597.274 291.908 599.641 291.799 599.584Z" fill="#FAFAF9"/>
<path d="M279.486 675.91C279.285 676.016 278.886 673.872 276.37 672.022C275.153 671.129 273.392 670.369 271.42 670.466C270.448 670.502 269.4 670.809 268.241 671.048C267.114 671.276 265.7 671.476 264.374 670.818C263.047 670.163 262.366 668.846 261.964 667.754C261.543 666.628 261.284 665.552 260.891 664.631C260.17 662.79 258.587 661.71 257.162 661.252C254.18 660.32 252.313 661.635 252.268 661.41C252.232 661.362 252.602 660.985 253.47 660.631C254.329 660.293 255.735 660.036 257.392 660.453C259.007 660.839 260.968 662.046 261.881 664.198C262.345 665.218 262.634 666.31 263.038 667.339C263.43 668.365 263.982 669.322 264.902 669.769C266.8 670.68 269.134 669.394 271.386 669.383C273.683 669.342 275.608 670.301 276.88 671.366C279.508 673.602 279.594 675.966 279.486 675.91Z" fill="#FAFAF9"/>
</g>
<defs>
<clipPath id="clip0_23346_56000">
<rect width="880" height="937" fill="white"/>
</clipPath>
</defs>
</svg>
